<svg xmlns="http://www.w3.org/2000/svg" viewBox="0 0 1534 768" class="cursor-pointer" width="120">
    <defs></defs>
    <path class="cls-1"
          d="M838,91.34c16-8.63,34.45-12.34,52.56-11.76a102.33,102.33,0,0,1,36.32,5.36c19.32,6.82,35.63,24.17,37.79,45a96.88,96.88,0,0,1,0,18.42c-1.38,12.92-9,25.22-20.48,31.51s-24.62,8.57-37.48,8.16c9-16.13,15.51-34.29,14.8-53,.65-12.63-2.42-25.88-10.48-35.85a34.15,34.15,0,0,0-24.9-12.53c-12.21-.44-25,2.73-34.49,10.71-11.23,9.16-19.08,21.92-24.5,35.24-7.46,17.69-10.89,36.72-13.86,55.59-4.3,27.17-6.8,54.57-9.05,82-1.6,23.67-3.54,47.33-6.28,70.9a269,269,0,0,1-14.55,58.11c-12,30.4-31.87,58.33-59.33,76.52a136.21,136.21,0,0,1-53.21,22.34,169.18,169.18,0,0,1-36.34,3,139.55,139.55,0,0,1-46.94-6.87c-.11-30.37-.08-60.74-.08-91.11-.11-16.29.32-32.59-.44-48.85,26.61-4.7,53.7-9.23,80.37-13.61.06,49.72-.54,99.52-.34,149.23,17.35-5.82,32.53-17.3,43.88-31.55a157.27,157.27,0,0,0,24.88-46.08c9.21-25.28,14.2-51.89,17.32-78.54,2-18.8,3.12-37.69,4.26-56.56.32-12.52,1.4-25,2.71-37.46,2.92-22.84,7.12-45.66,14.79-67.43,7-19.61,16.66-38.48,30.27-54.34C814.67,107.4,825.48,97.94,838,91.34Z"
          fill="#d75d00"></path>
    <path class="cls-1"
          d="M971.34,166.69c5.33-2.49,11.47-2.57,17.19-1.75,11.54,2.94,19.48,14.75,19.37,26.44,0,9.51-4.71,18.61-11.88,24.71-9.42,8.33-24.45,7-34.08-.3-7.65-5.4-9.65-15.73-8.68-24.52C954.34,180.61,961.66,171.07,971.34,166.69Z"
          fill="#d75d00"></path>
    <path class="cls-1"
          d="M1028.31,313.8c19-15.51,41.12-28.69,65.88-31.49,12.86-.72,26.68-.89,38.12,6,10.71,6.5,16.32,18.51,19.57,30.16,3.72-8.1,7.65-16.11,11.54-24.12,17.63-1,35.24-2.39,52.87-3.33Q1189.5,341.83,1164,393.33c-18.43,37.22-37.67,74-58,110.25a202.08,202.08,0,0,0,40-18c29.17-17.49,54.49-40.76,76.9-66.2,4.68-6.92,8.24-14.56,12.44-21.79,19.49-35.26,38.74-70.68,56.81-106.69,19.75-.82,39.51-1.56,59.27-2.35-17.66,27.8-35.48,55.5-53.2,83.25-4.47,7.32-9.61,14.25-13.59,21.85,4.75-5.23,8.28-11.41,12.57-17,18.64-26.83,39.63-52.48,65.46-72.73,12.88-10.09,27.26-19.67,43.92-21.58,7.55-.41,15.5-1,22.63,2.1,10.25,4.05,16.83,14.37,18.8,24.9,2,13.64-.4,27.7-5.92,40.27-2.7,6.68-6.54,12.8-10,19.11-11,19.59-24,37.94-35.71,57.14-7.64,12.47-16,25.3-17.75,40.16-1,6.2-.6,13.36,3.81,18.24,4,3.32,9.92,3.56,14.57,1.41,8.7-3.76,16.33-9.59,23.69-15.49,11.89-10.4,22.63-22,33-33.9,26.45-30.36,50.08-63,74-95.31,1.9,1.05,3.82,2.08,5.78,3.07v.33c-9.61,11.74-18.19,24.29-27.42,36.33q-19.51,26.81-40.87,52.22c-12.72,15.15-25.79,30.11-40.62,43.25-12,10.62-26.39,19.58-42.64,21.3-8.38.36-17.18.75-25-2.9-7.91-3.27-13.28-10.54-16.66-18.14-4.88-11.12-4.27-23.78-1.57-35.38,3.47-14.73,11.51-27.76,19-40.73,10.82-18.27,23.4-35.41,34.55-53.48,6.83-10.5,13.59-21.69,14.94-34.42,1.07-6.7-2.59-14.76-9.75-16.07-9.09-1.69-17.79,2.75-25,7.8a158,158,0,0,0-20.83,18.1c-21.64,21-39.65,45.27-57,69.82-22,31.34-42.2,64-58.87,98.54-17.37.09-34.72,1.27-52.09,1.47,9.27-17.82,19.23-35.27,28.61-53-31.17,31.77-67.78,60-110.85,73.28-22.29,42.28-51,82.13-89.13,111.5-37.38,28.93-84.19,46.87-131.79,45.77A147.1,147.1,0,0,1,837,664.41c-16.69-4.9-32.37-15-41.68-29.92-7.54-11.6-10.24-25.73-9.78-39.4a60.77,60.77,0,0,1,16.66-43.4c11.9-12.73,29-19.77,46.25-21.1,11.64-.76,23.11,1.5,34.64,2.65,0,1.58,0,3.17,0,4.77-16.17-.32-33.68,5.59-43.07,19.45-10.38,14.49-12,33.14-10.68,50.39,1.65,15,7.9,30,19.1,40.4s26.84,15.2,41.92,14A100.11,100.11,0,0,0,931,651.65c20.53-10.34,38.35-25.42,53.76-42.35A355.08,355.08,0,0,0,1015,571.5c23-31.89,42.63-66,61.72-100.33,5.52-9.93,11.81-19.41,17.2-29.4-3.33,3.26-6,7.14-9.09,10.58-15.4,17.74-34.11,33.55-56.52,41.46-9.91,3.69-20.63,4.37-31.1,3.6a35.15,35.15,0,0,1-23.58-13.35,62.75,62.75,0,0,1-12.59-40,96.74,96.74,0,0,1,2.24-24.88c-17.86,20.54-35.71,41.42-57.3,58.2-12.51,9.51-26.76,17.56-42.47,20-8.19.54-16.92.89-24.44-3-8.51-3.75-14.31-12-16.75-20.78-3.28-11.84-1.62-24.44,1.84-36,5.11-16.4,13.19-31.65,21.19-46.78C863,358,881.93,325.9,900.27,293.5c17.85-1.19,35.72-1.95,53.58-3-16,28.58-32.53,56.83-48.82,85.23-13.57,24.1-27.32,48.23-37.87,73.85-3.3,8.67-6.5,18.13-4.44,27.49.71,3.5,2.43,7.42,6.24,8.39,5.88.95,11.53-1.63,16.69-4.13,19.89-10.15,35.34-26.63,50.68-42.45,10.11-10.92,19.57-22.42,29.23-33.74,2.77-3.14,3.34-7.45,5-11.19A197.86,197.86,0,0,1,1028.31,313.8Zm77.83-24.07c-9,1.53-17.37,5.92-24.61,11.38a156.46,156.46,0,0,0-28.72,30.17,255.72,255.72,0,0,0-30.95,57.34c-5.31,14.06-9.87,28.58-11.18,43.63-.61,12.2.05,25,5.68,36.11,4.08,7.39,13.24,9.92,21.17,9.76,10.75.05,20-6.45,27.76-13.27,15-13.43,26.53-30.17,36.51-47.51a293.29,293.29,0,0,0,26.91-62.22c3.43-12,6.13-24.49,5.34-37.09-.64-8.34-1.65-17.52-7.44-24C1121.35,288.54,1113.1,288.39,1106.14,289.73Z"
          fill="#d75d00"></path>
    <path class="cls-1"
          d="M431.5,380.55c26.43-4.79,53-9,79.45-13.57.11,42.34,0,84.68.05,127-26.51,0-53,0-79.53,0Q431.56,437.26,431.5,380.55Z"
          fill="#d75d00"></path>
    <path class="cls-1" d="M315.51,400.07c13.8-2.49,27.65-4.75,41.49-7.07V494H315.53Q315.46,447,315.51,400.07Z"
          fill="#d75d00"></path>
    <path class="cls-2"
          d="M431.5,104.5q39.75,0,79.49,0,0,89.93,0,179.86c9-11.47,19.91-21.94,33.43-27.83,16.83-7.54,35.91-8.2,54-5.91,17.25,2.62,34.31,9.75,46.49,22.53a71.7,71.7,0,0,1,20.75,38.76c1.93,9.46,2,19.13,1.86,28.74-26.67,4.38-53.33,8.83-79.94,13.53l-.43.08c-.77-11.16-3.63-23.38-12.57-30.9-5.75-5.19-13.79-6.5-21.27-6.61-9.31,0-19,2.07-26.38,8.14-10.85,9.24-15.21,24-15.54,37.84-.12,1.41-.3,2.83-.42,4.26-26.47,4.59-53,8.78-79.45,13.57Z"
          fill="#eb7217"></path>
    <path class="cls-2"
          d="M315.54,176.5H357V255q22.75,0,45.51,0,0,35,0,70-22.75,0-45.51,0v68c-13.84,2.32-27.69,4.58-41.49,7.07Q315.52,288.29,315.54,176.5Z"
          fill="#eb7217"></path>
    <path class="cls-3"
          d="M34.49,137h188q0,39.74,0,79.49h-102V275H217v79q-48.25,0-96.51,0c-7.54-.55-14.76-3-22.11-4.53-21.31-4.82-42.52-10.09-63.88-14.71Q34.49,235.87,34.49,137Z"
          fill="#eb7217"></path>
    <path class="cls-3"
          d="M277.5,255q0-39.25,0-78.5h38q-.14,111.78,0,223.57c-12.69-2.79-25.25-6.13-38-8.59q0-33.24,0-66.48h-25q0-35,0-70Z"
          fill="#eb7217"></path>
    <path class="cls-4"
          d="M34.5,334.74c21.36,4.62,42.57,9.89,63.88,14.71,7.35,1.58,14.57,4,22.11,4.53q0,30.51,0,61h102v79.5H34.5Q34.5,414.61,34.5,334.74Z"
          fill="#e98234"></path>
    <path class="cls-4" d="M277.5,391.48c12.76,2.46,25.32,5.8,38,8.59q0,47,0,93.93h-38Q277.5,442.75,277.5,391.48Z"
          fill="#e98234"></path>
</svg>