<svg width="247" height="246" viewBox="0 0 247 246" fill="none" xmlns="http://www.w3.org/2000/svg">
<path fill-rule="evenodd" clip-rule="evenodd" d="M122.573 13.2141C128.59 13.2141 133.468 10.256 133.468 6.60707C133.468 2.95808 128.59 0 122.573 0C116.556 0 111.678 2.95808 111.678 6.60707C111.678 10.256 116.556 13.2141 122.573 13.2141ZM6.76997 133.342C10.5089 133.342 13.5399 128.595 13.5399 122.739C13.5399 116.883 10.5089 112.136 6.76997 112.136C3.03102 112.136 0 116.883 0 122.739C0 128.595 3.03102 133.342 6.76997 133.342ZM134.683 35.5588C134.683 41.576 129.263 46.454 122.576 46.454C115.889 46.454 110.469 41.576 110.469 35.5588C110.469 29.5415 115.889 24.6636 122.576 24.6636C129.263 24.6636 134.683 29.5415 134.683 35.5588ZM122.573 245.145C128.59 245.145 133.468 242.187 133.468 238.538C133.468 234.889 128.59 231.931 122.573 231.931C116.556 231.931 111.678 234.889 111.678 238.538C111.678 242.187 116.556 245.145 122.573 245.145ZM92.4532 4.19488C93.5756 6.66111 90.9223 10.282 86.5269 12.2823C82.1315 14.2826 77.6585 13.9049 76.5361 11.4387C75.4138 8.97242 78.0671 5.35157 82.4624 3.35126C86.8578 1.35095 91.3308 1.72865 92.4532 4.19488ZM48.014 28.8531C51.0285 26.9119 52.7475 24.2129 51.8535 22.8246C50.9596 21.4364 47.7911 21.8847 44.7766 23.8259C41.7621 25.7671 40.0431 28.4662 40.937 29.8544C41.831 31.2427 44.9994 30.7944 48.014 28.8531ZM201.914 23.8177C204.929 25.759 206.648 28.458 205.754 29.8463C204.86 31.2345 201.691 30.7862 198.677 28.845C195.662 26.9038 193.943 24.2047 194.837 22.8165C195.731 21.4282 198.9 21.8765 201.914 23.8177ZM51.8535 223.019C52.7475 221.631 51.0285 218.932 48.014 216.991C44.9995 215.049 41.831 214.601 40.937 215.989C40.0431 217.378 41.7621 220.077 44.7766 222.018C47.7911 223.959 50.9596 224.407 51.8535 223.019ZM205.754 216.009C206.648 217.397 204.929 220.096 201.914 222.037C198.9 223.978 195.731 224.427 194.837 223.039C193.943 221.65 195.662 218.951 198.677 217.01C201.691 215.069 204.86 214.62 205.754 216.009ZM92.5997 241.897C93.7221 239.431 91.0688 235.81 86.6734 233.81C82.278 231.809 77.805 232.187 76.6826 234.653C75.5602 237.119 78.2136 240.74 82.6089 242.741C87.0043 244.741 91.4773 244.363 92.5997 241.897ZM27.9551 49.8434C30.0871 51.4682 29.3138 56.0679 26.228 60.1172C23.1421 64.1665 18.9122 66.132 16.7802 64.5073C14.6482 62.8825 15.4215 58.2828 18.5074 54.2335C21.5932 50.1842 25.8231 48.2187 27.9551 49.8434ZM24.281 194.982C26.6528 193.734 26.6525 189.069 24.2805 184.564C21.9084 180.06 18.0627 177.42 15.691 178.669C13.3192 179.918 13.3194 184.582 15.6915 189.087C18.0636 193.592 21.9092 196.231 24.281 194.982ZM229.855 54.2373C232.941 58.2866 233.714 62.8863 231.582 64.5111C229.45 66.1358 225.22 64.1703 222.134 60.121C219.048 56.0717 218.275 51.472 220.407 49.8472C222.539 48.2225 226.769 50.188 229.855 54.2373ZM232.646 189.077C235.018 184.572 235.018 179.908 232.646 178.659C230.274 177.41 226.429 180.049 224.057 184.554C221.685 189.059 221.684 193.723 224.056 194.972C226.428 196.221 230.274 193.581 232.646 189.077ZM246.536 122.739C246.536 128.595 243.505 133.342 239.766 133.342C236.027 133.342 232.996 128.595 232.996 122.739C232.996 116.883 236.027 112.136 239.766 112.136C243.505 112.136 246.536 116.883 246.536 122.739ZM169.998 11.4511C171.121 8.98489 168.467 5.36403 164.072 3.36372C159.676 1.3634 155.203 1.74112 154.081 4.20735C152.959 6.67358 155.612 10.2944 160.007 12.2947C164.403 14.2951 168.876 13.9174 169.998 11.4511ZM169.863 234.615C170.986 237.081 168.332 240.702 163.937 242.702C159.542 244.702 155.069 244.325 153.946 241.859C152.824 239.392 155.477 235.771 159.873 233.771C164.268 231.771 168.741 232.149 169.863 234.615ZM183.553 97.8555C176.414 95.8288 172.164 87.4778 172.859 80.4491C173.515 73.7414 179.423 68.8304 186.135 71.317C192.848 73.8037 197.673 81.1438 197.117 88.2683C197.017 89.8584 196.562 91.4058 195.785 92.7969C195.008 94.188 193.93 95.3874 192.629 96.307C191.328 97.2266 189.837 97.8431 188.267 98.111C186.696 98.379 185.085 98.2917 183.553 97.8555ZM150.248 40.4551C149.568 47.5509 154.014 54.9916 160.856 57.2962C167.065 59.4139 173.395 55.5234 173.553 48.787C173.716 41.926 168.9 34.7967 162.59 32.1999C156.367 29.6366 150.852 34.1642 150.248 40.4551ZM202.669 137.731C195.41 136.217 192.421 127.755 193.566 121.115C194.711 114.474 200.542 108.624 207.633 110.67C214.446 112.634 218.283 120.133 216.966 126.907C215.711 133.361 209.535 139.158 202.669 137.731ZM213.201 158.642C211.945 162.465 212.745 169.077 217.968 169.312C223.09 169.542 227.809 164.32 229.615 160.118C231.422 155.916 229.519 150.324 224.824 149.644C219.688 148.901 214.715 154.018 213.201 158.642ZM193.042 205.984C187.681 206.549 188.514 198.96 189.386 196.253C190.857 191.692 196.027 186.311 201.364 186.436C206.261 186.551 206.702 192.434 204.833 195.97C202.701 199.98 197.972 205.466 193.042 205.984ZM41.7425 192.56C42.3654 197.749 46.7925 202.967 51.3585 205.415C55.0477 207.394 59.7718 205.731 59.2448 200.854C58.6794 195.622 54.674 190.007 49.9451 187.683C45.9971 185.752 41.2059 187.918 41.7425 192.56ZM25.9358 168.612C21.3985 166.696 16.8948 161.387 17.0385 156.184C17.0681 155.099 17.3579 154.038 17.8834 153.088C18.4089 152.139 19.1547 151.329 20.0582 150.728C20.9616 150.127 21.9962 149.752 23.0749 149.634C24.1536 149.516 25.2449 149.659 26.2568 150.051C31.2157 151.968 34.7612 157.717 34.8809 162.901C34.9768 167.86 30.1376 170.399 25.9358 168.612ZM17.6796 87.7317C16.2422 91.742 17.4975 97.6735 22.5187 98.2724C27.7028 98.8904 32.6233 93.9076 34.1086 89.2745C35.4645 85.1541 34.4296 78.8057 29.3174 78.5566C24.3872 78.3218 19.3277 83.1513 17.6796 87.7317ZM46.1274 61.2639C40.8571 61.4316 41.1302 54.8916 42.6059 51.6815C44.6326 47.2736 49.5004 41.9602 54.3922 41.6823C59.7057 41.3757 59.1259 48.2415 58.1006 51.4563C56.6393 56.0224 51.4457 61.0915 46.1274 61.2639ZM188.363 47.0536C188.636 52.5108 192.67 58.0974 197.653 60.2342C201.232 61.7674 206.775 60.3444 205.903 55.3041C205.031 50.2638 200.556 44.9886 196.297 42.4445C192.315 40.0633 188.133 42.5499 188.363 47.0536ZM221.02 98.1106C215.917 96.4528 212.247 90.5501 212.458 85.251C212.626 80.6802 216.995 77.4078 221.451 79.4584C225.907 81.5091 230.137 86.8465 230.305 91.9156C230.454 96.8793 225.183 99.4521 221.02 98.1106ZM150.664 201.46C149.193 207.061 151.143 215.34 157.985 216.001C164.779 216.658 170.605 209.998 172.665 204.109C174.677 198.298 172.78 190.661 165.775 189.736C158.588 188.778 152.384 194.925 150.664 201.46ZM121.217 218.892C114.409 217.177 110.585 209.473 111.596 202.822C112.65 195.875 119.262 190.816 126.243 192.425C133.372 194.069 136.999 201.663 135.471 208.495C134.029 214.858 128.059 220.622 121.217 218.892ZM73.5031 198.642C73.3594 205.494 78.1841 212.609 84.4798 215.22C90.6796 217.793 96.1847 213.289 96.7692 207.013C97.4352 199.922 92.9841 192.495 86.1519 190.176C79.9665 188.078 73.6421 191.935 73.5031 198.642ZM39.1892 137.51C32.4001 135.527 28.5192 128.067 29.8081 121.292C31.0394 114.838 37.2009 109.07 44.0379 110.517C51.287 112.055 54.3103 120.502 53.1891 127.147C52.068 133.792 46.2515 139.566 39.1892 137.51ZM51.1141 82.411C49.1881 88.7498 51.8807 96.5594 58.9765 97.8866C66.3837 99.2761 72.6745 92.8654 74.3419 86.129C75.8607 79.9867 73.6136 71.4009 66.3501 70.4905C59.2592 69.6042 53.0402 76.0723 51.1141 82.411ZM81.8638 57.7633C74.8543 56.805 72.9282 49.187 74.9405 43.3561C76.9528 37.5252 82.8077 30.7936 89.592 31.4644C96.3764 32.1351 98.4174 40.4143 96.9465 46.0392C95.2552 52.584 89.0362 58.7167 81.8638 57.7633ZM79.13 176.801C66.9316 182.665 60.7605 179.791 54.9536 174.084L54.944 174.056C51.836 170.728 49.974 166.429 49.6737 161.886C48.9885 151.321 57.4977 144.595 63.6927 144.7C63.8425 144.704 64.0138 144.705 64.2042 144.707C65.7438 144.722 68.536 144.749 71.3587 145.96C72.6124 146.502 73.8057 147.434 75.0179 148.381C75.9922 149.142 76.9787 149.912 78.0184 150.497C84.8171 154.325 89.6706 155.159 94.4618 154.977C98.7739 154.809 103.057 154.057 109.286 150.612C117.072 146.3 121.024 145.347 126.175 146.204C132.24 147.201 135.906 150.497 138.368 154.44C144.688 164.674 140.136 178.119 126.242 181.271C121.882 182.268 117.273 181.578 109.607 177.438C96.5843 170.256 91.2709 170.846 79.13 176.801ZM133.898 108.859C132.034 117.387 133.725 125.043 147.16 133.011C160.196 140.754 163.277 144.932 163.411 159.746C163.411 168.37 164.94 172.433 167.814 175.284C177.004 184.239 189.519 179.864 194.698 169.774C196.71 165.816 197.736 161.341 196.102 156.143C194.664 151.697 192.504 149.114 185.743 145.056C180.267 141.774 177.521 138.574 175.231 134.995C172.654 130.994 170.814 126.37 170.253 118.393C170.169 117.22 170.249 116.003 170.329 114.797V114.797C170.436 113.189 170.541 111.599 170.253 110.157C169.639 106.963 167.976 104.359 167.067 102.935L167.067 102.935C166.97 102.783 166.881 102.644 166.804 102.52C163.244 96.8087 151.999 91.7732 142.225 97.5897C138.065 100.097 135.066 104.148 133.883 108.859H133.898ZM112.977 109.128C112.277 124.661 106.317 129.764 97.9034 132.097V132.102C93.177 133.263 88.1834 132.51 84.0089 130.008C74.2589 124.086 73.545 111.845 76.9611 106.095C77.0382 105.965 77.1234 105.818 77.217 105.657C78.0607 104.201 79.5941 101.556 82.1212 99.5552C83.2519 98.6501 84.6925 98.0148 86.1501 97.3721C87.2618 96.8818 88.3833 96.3873 89.3847 95.7653C96.1355 91.5874 99.3312 87.8503 101.636 83.7873C103.71 80.1748 105.224 76.3274 105.555 70.2091C105.977 62.6773 107.222 59.7786 110.394 56.6643C114.126 53.0709 118.41 51.9833 122.722 51.83C133.66 51.4851 143.568 59.1558 140.215 71.2823C139.113 75.0721 136.286 78.3206 128.754 82.417C115.885 89.5224 113.671 94.0692 112.977 109.128Z" fill="white"/>
</svg>
